# xmcd
#
# Track frame offsets:
# 150
# 3231
# 24739
# 30480
# 40157
# 48552
# 66044
# 79337
# 87945
# 93951
# 100782
# 124773
# 128528
# 134757
# 140760
# 149335
# 157272
# 174371
# 192321
#
# Disc length: 2724 seconds
#
#
# Revision: 0
# Processed by: cddbd v1.5.1PL2 Copyright (c) Steve Scherf et al.
# Submitted via: FreeRIP 2.941 
#
DISCID=070aa213
DTITLE=Big L - Harlem's Finest - A Freestyle History Vol 1n2
DYEAR=2000
DGENRE=Hip-Hop
TTITLE0=Interview, Intro
TTITLE1=Rock N Will Audition
TTITLE2=Stretch and Bobbito '92
TTITLE3=Stretch and Bobbito '93
TTITLE4=Stretch and Bobbito '94
TTITLE5=Stretch and Bobbito feat Jay-Z '95
TTITLE6=Stretch and Bobbito feat Jay-Z '95 pt2
TTITLE7=Tony Touch '139'
TTITLE8=Universal Freestyle
TTITLE9=Doo Wop 'My Niggaz'
TTITLE10=Stretch and Bobbito '98
TTITLE11=Roc Raida Mixtape
TTITLE12=Flamboyant 1
TTITLE13=Flamboyant 2 Feat Rayal Flush
TTITLE14=Kay Slay Freestyle
TTITLE15=Devil's Son - Live in Amsterdam
TTITLE16=Nigga Please feat Stan Spit n McGruff
TTITLE17=How Will I Make It
TTITLE18=Final Four Interview
EXTD=R.I.P. Big L
EXTT0=
EXTT1=
EXTT2=
EXTT3=
EXTT4=
EXTT5=
EXTT6=
EXTT7=
EXTT8=
EXTT9=
EXTT10=
EXTT11=
EXTT12=
EXTT13=
EXTT14=
EXTT15=
EXTT16=
EXTT17=
EXTT18=
PLAYORDER=
